<svg width="42" height="42" viewBox="0 0 42 42" fill="none" xmlns="http://www.w3.org/2000/svg">
<path d="M41 21C41 32.0457 32.0457 41 21 41C9.9543 41 1 32.0457 1 21C1 9.9543 9.9543 1 21 1C32.0457 1 41 9.9543 41 21Z" fill="#1DD35E"/>
<path d="M40 21C40 10.5066 31.4934 2 21 2C10.5066 2 2 10.5066 2 21C2 31.4934 10.5066 40 21 40C31.4934 40 40 31.4934 40 21ZM28.293 16.293C28.6835 15.9024 29.3165 15.9024 29.707 16.293C30.0976 16.6835 30.0976 17.3165 29.707 17.707L19.707 27.707C19.3165 28.0976 18.6835 28.0976 18.293 27.707L13.293 22.707L13.2246 22.6309C12.9043 22.2381 12.9269 21.6591 13.293 21.293C13.6591 20.9269 14.2381 20.9043 14.6309 21.2246L14.707 21.293L19 25.5859L28.293 16.293ZM42 21C42 32.598 32.598 42 21 42C9.40202 42 0 32.598 0 21C0 9.40202 9.40202 0 21 0C32.598 0 42 9.40202 42 21Z" fill="#EDEDED"/>
</svg>
