<svg width="38" height="38" viewBox="0 0 38 38" fill="none" xmlns="http://www.w3.org/2000/svg">
<path d="M18.0385 1.10632C18.3846 0.297529 19.5311 0.297527 19.8772 1.10632L22.783 7.89694C22.9967 8.39636 23.57 8.63383 24.0743 8.43181L30.9307 5.68482C31.7473 5.35764 32.558 6.16837 32.2309 6.98499L29.4839 13.8414C29.2818 14.3457 29.5193 14.919 30.0187 15.1327L36.8093 18.0385C37.6181 18.3846 37.6181 19.5311 36.8093 19.8772L30.0187 22.783C29.5193 22.9967 29.2818 23.57 29.4839 24.0743L32.2309 30.9307C32.558 31.7473 31.7473 32.558 30.9307 32.2309L24.0743 29.4839C23.57 29.2818 22.9967 29.5193 22.783 30.0187L19.8772 36.8093C19.5311 37.6181 18.3846 37.6181 18.0385 36.8093L15.1327 30.0187C14.919 29.5193 14.3457 29.2818 13.8414 29.4839L6.98499 32.2309C6.16837 32.558 5.35764 31.7473 5.68482 30.9307L8.43181 24.0743C8.63383 23.57 8.39636 22.9967 7.89694 22.783L1.10632 19.8772C0.297529 19.5311 0.297527 18.3846 1.10632 18.0385L7.89694 15.1327C8.39636 14.919 8.63383 14.3457 8.43181 13.8414L5.68482 6.98499C5.35764 6.16837 6.16837 5.35764 6.98499 5.68482L13.8414 8.43181C14.3457 8.63383 14.919 8.39636 15.1327 7.89694L18.0385 1.10632Z" fill="#4CB3FF"/>
<path d="M17.5788 0.909888C18.098 -0.303294 19.8175 -0.303298 20.3366 0.909888L23.2429 7.69993C23.3498 7.94964 23.6363 8.06852 23.8884 7.96751L30.7449 5.22044C31.9696 4.72992 33.1855 5.94586 32.695 7.17063L29.948 14.0271C29.847 14.2792 29.9659 14.5657 30.2156 14.6726L37.0056 17.5788C38.2188 18.098 38.2188 19.8175 37.0056 20.3366L30.2156 23.2429C29.9658 23.3498 29.847 23.6363 29.948 23.8884L32.695 30.7449C33.1857 31.9697 31.9697 33.1857 30.7449 32.695L23.8884 29.948C23.6363 29.847 23.3498 29.9658 23.2429 30.2156L20.3366 37.0056C19.8175 38.2188 18.098 38.2188 17.5788 37.0056L14.6726 30.2156C14.5657 29.9659 14.2792 29.847 14.0271 29.948L7.17063 32.695C5.94586 33.1855 4.72992 31.9696 5.22044 30.7449L7.96751 23.8884C8.06852 23.6363 7.94963 23.3497 7.69993 23.2429L0.909888 20.3366C-0.303294 19.8175 -0.303298 18.098 0.909888 17.5788L7.69993 14.6726C7.94964 14.5657 8.06852 14.2792 7.96751 14.0271L5.22044 7.17063C4.73011 5.94594 5.94594 4.73011 7.17063 5.22044L14.0271 7.96751C14.2792 8.06852 14.5657 7.94963 14.6726 7.69993L17.5788 0.909888ZM19.4177 1.30344C19.2447 0.89905 18.6708 0.899046 18.4978 1.30344L15.5925 8.09348C15.2719 8.84261 14.4114 9.19926 13.655 8.89622L6.79856 6.14915C6.39049 5.98598 5.98598 6.39049 6.14915 6.79856L8.89622 13.655C9.19926 14.4114 8.8426 15.2719 8.09348 15.5925L1.30344 18.4978C0.89905 18.6708 0.899046 19.2447 1.30344 19.4177L8.09348 22.323C8.84261 22.6435 9.19926 23.5041 8.89622 24.2605L6.14915 31.1169C5.98579 31.5251 6.3904 31.9296 6.79856 31.7663L13.655 29.0193C14.4114 28.7162 15.2719 29.0729 15.5925 29.822L18.4978 36.613C18.6709 37.0172 19.2446 37.0171 19.4177 36.613L22.323 29.822C22.6435 29.0729 23.5041 28.7162 24.2605 29.0193L31.1169 31.7663C31.5252 31.9298 31.9298 31.5252 31.7663 31.1169L29.0193 24.2605C28.7162 23.5041 29.0729 22.6435 29.822 22.323L36.613 19.4177C37.0171 19.2446 37.0172 18.6709 36.613 18.4978L29.822 15.5925C29.0729 15.2719 28.7162 14.4114 29.0193 13.655L31.7663 6.79856C31.9296 6.39041 31.5251 5.98579 31.1169 6.14915L24.2605 8.89622C23.5041 9.19926 22.6435 8.8426 22.323 8.09348L19.4177 1.30344ZM26.6042 15.6042C26.7995 15.409 27.116 15.4091 27.3113 15.6042C27.5065 15.7995 27.5065 16.116 27.3113 16.3113L17.3113 26.3113C17.116 26.5065 16.7995 26.5065 16.6042 26.3113L11.6042 21.3113C11.4091 21.116 11.409 20.7995 11.6042 20.6042C11.7995 20.409 12.116 20.4091 12.3113 20.6042L16.9577 25.2507L26.6042 15.6042Z" fill="#EDEDED"/>
</svg>
